<mxfile host="app.diagrams.net" agent="Mozilla/5.0 (Windows NT 10.0; Win64; x64) AppleWebKit/537.36 (KHTML, like Gecko) Chrome/132.0.0.0 Safari/537.36" version="26.0.11">
  <diagram id="6a731a19-8d31-9384-78a2-239565b7b9f0" name="Page-1">
    <mxGraphModel dx="1120" dy="1287" grid="1" gridSize="10" guides="1" tooltips="1" connect="1" arrows="1" fold="1" page="1" pageScale="1" pageWidth="1169" pageHeight="827" background="none" math="0" shadow="0">
      <root>
        <mxCell id="0" />
        <mxCell id="1" parent="0" />
        <mxCell id="2" value="start" style="shape=mxgraph.flowchart.terminator;strokeWidth=2;gradientColor=none;gradientDirection=north;fontStyle=0;html=1;" parent="1" vertex="1">
          <mxGeometry x="260" y="-40" width="120" height="30" as="geometry" />
        </mxCell>
        <mxCell id="3" value="&lt;li&gt;Enter Contract Number&lt;/li&gt;&lt;li&gt;Enter Contact Personâ€™s Name&lt;/li&gt;&lt;li&gt;Enter Date of Reunion&lt;/li&gt;&lt;li&gt;Enter Number of Guests&lt;/li&gt;" style="shape=mxgraph.flowchart.data;strokeWidth=2;gradientColor=none;gradientDirection=north;fontStyle=0;html=1;align=center;" parent="1" vertex="1">
          <mxGeometry x="101" y="70" width="440" height="140" as="geometry" />
        </mxCell>
        <mxCell id="7" style="fontStyle=1;strokeColor=#003366;strokeWidth=1;html=1;" parent="1" source="2" edge="1">
          <mxGeometry relative="1" as="geometry">
            <mxPoint x="320" y="70" as="targetPoint" />
          </mxGeometry>
        </mxCell>
        <mxCell id="8" style="fontStyle=1;strokeColor=#003366;strokeWidth=1;html=1;" parent="1" source="3" edge="1">
          <mxGeometry relative="1" as="geometry">
            <mxPoint x="320.26666666666665" y="250" as="targetPoint" />
          </mxGeometry>
        </mxCell>
        <mxCell id="25" value="" style="edgeStyle=elbowEdgeStyle;elbow=horizontal;exitX=0.5;exitY=0.9;exitPerimeter=0;fontStyle=1;strokeColor=#003366;strokeWidth=1;html=1;" parent="1" edge="1">
          <mxGeometry width="100" height="100" as="geometry">
            <mxPoint x="321.5" y="730" as="sourcePoint" />
            <mxPoint x="321.5" y="809" as="targetPoint" />
          </mxGeometry>
        </mxCell>
        <mxCell id="40" value="end" style="shape=mxgraph.flowchart.terminator;strokeWidth=2;gradientColor=none;gradientDirection=north;fontStyle=0;html=1;" parent="1" vertex="1">
          <mxGeometry x="262" y="1180" width="120" height="30" as="geometry" />
        </mxCell>
        <mxCell id="43" value="" style="edgeStyle=elbowEdgeStyle;elbow=vertical;exitX=0.5;exitY=1;exitPerimeter=0;fontStyle=1;strokeColor=#003366;strokeWidth=1;html=1;" parent="1" edge="1">
          <mxGeometry width="100" height="100" as="geometry">
            <mxPoint x="321.5" y="1090" as="sourcePoint" />
            <mxPoint x="322" y="1180" as="targetPoint" />
          </mxGeometry>
        </mxCell>
        <mxCell id="f02JjPCerr3R4mKzdLAS-54" value="Cocktails? (Y/N)" style="rhombus;whiteSpace=wrap;html=1;" vertex="1" parent="1">
          <mxGeometry x="241" y="250" width="160" height="120" as="geometry" />
        </mxCell>
        <mxCell id="f02JjPCerr3R4mKzdLAS-55" value="Appetizers? (Y/N)" style="rhombus;whiteSpace=wrap;html=1;" vertex="1" parent="1">
          <mxGeometry x="242" y="370" width="160" height="120" as="geometry" />
        </mxCell>
        <mxCell id="f02JjPCerr3R4mKzdLAS-62" value="Dinner? (Y/N)" style="rhombus;whiteSpace=wrap;html=1;" vertex="1" parent="1">
          <mxGeometry x="242" y="490" width="160" height="120" as="geometry" />
        </mxCell>
        <mxCell id="f02JjPCerr3R4mKzdLAS-63" value="Band? (Y/N)" style="rhombus;whiteSpace=wrap;html=1;" vertex="1" parent="1">
          <mxGeometry x="242" y="610" width="160" height="120" as="geometry" />
        </mxCell>
        <mxCell id="f02JjPCerr3R4mKzdLAS-64" value="Calculate Base Price" style="rounded=1;whiteSpace=wrap;html=1;" vertex="1" parent="1">
          <mxGeometry x="137" y="810" width="370" height="60" as="geometry" />
        </mxCell>
        <mxCell id="f02JjPCerr3R4mKzdLAS-65" value="Compute total Cost" style="rounded=1;whiteSpace=wrap;html=1;" vertex="1" parent="1">
          <mxGeometry x="137" y="920" width="370" height="60" as="geometry" />
        </mxCell>
        <mxCell id="f02JjPCerr3R4mKzdLAS-66" value="Display Contract Summary" style="rounded=1;whiteSpace=wrap;html=1;" vertex="1" parent="1">
          <mxGeometry x="137" y="1030" width="370" height="60" as="geometry" />
        </mxCell>
        <mxCell id="f02JjPCerr3R4mKzdLAS-67" style="fontStyle=1;strokeColor=#003366;strokeWidth=1;html=1;entryX=0.5;entryY=0;entryDx=0;entryDy=0;" edge="1" parent="1" target="f02JjPCerr3R4mKzdLAS-65">
          <mxGeometry relative="1" as="geometry">
            <mxPoint x="320.76666666666665" y="910" as="targetPoint" />
            <mxPoint x="321.5" y="870" as="sourcePoint" />
            <Array as="points">
              <mxPoint x="320.5" y="890" />
            </Array>
          </mxGeometry>
        </mxCell>
        <mxCell id="f02JjPCerr3R4mKzdLAS-68" style="fontStyle=1;strokeColor=#003366;strokeWidth=1;html=1;entryX=0.5;entryY=0;entryDx=0;entryDy=0;" edge="1" parent="1" target="f02JjPCerr3R4mKzdLAS-66">
          <mxGeometry relative="1" as="geometry">
            <mxPoint x="319.49666666666667" y="1020" as="targetPoint" />
            <mxPoint x="320.23" y="980" as="sourcePoint" />
          </mxGeometry>
        </mxCell>
      </root>
    </mxGraphModel>
  </diagram>
</mxfile>
